#!OML:ASF X:\für Bonn\!DataBase\2005_08_12_Daniel\c3d\Daniel.ASF
:FULLY-SPECIFIED
:DEGREES
62
root -2.78687 9.85007 -2.92642 307.451 -82.9888 -332.129
lowerback 46.7603 -3.17094 0.299731
upperback 4.89715 -5.36676 -3.02872
thorax -16.4553 -2.71407 -0.677803
lowerneck 7.20345 1.94942 -1.72123
upperneck -2.58702 2.39531 -0.747231
head -2.05658 1.22913 -0.0364522
rclavicle 3.598e-014 3.18055e-015
rhumerus 66.039 -1.19349 -101.464
rradius 12.213
rwrist 69.2145
rhand -17.7328 14.5987
rfingers 7.12502
rthumb 8.52817 -15.2091
lclavicle 3.598e-014 3.18055e-015
lhumerus 70.3363 -0.0805167 92.4708
lradius 9.48222
lwrist -61.8868
lhand -14.9687 3.3737
lfingers 7.12502
lthumb 11.195 33.055
rfemur -23.5103 -54.2421 -45.8784
rtibia 129.694
rfoot -8.95971 56.1295
rtoes 2.9919
lfemur -54.7321 24.4911 -2.90694
ltibia 126.597
lfoot -20.952 -37.9036
ltoes 4.95505
63
root -2.78981 9.65868 -2.92697 308.015 -83.112 -333.214
lowerback 47.3877 -3.2233 0.461108
upperback 4.99164 -5.37178 -2.99155
thorax -16.5208 -2.73136 -0.69764
lowerneck 7.29372 1.92121 -1.58942
upperneck -2.70099 2.35903 -0.914988
head -2.10641 1.21543 -0.112253
rclavicle -8.27938e-014 -2.42517e-014
rhumerus 66.0179 -0.776341 -100.3
rradius 12.4344
rwrist 67.9675
rhand -17.6695 14.4876
rfingers 7.12502
rthumb 8.58932 -15.3177
lclavicle -8.27938e-014 -2.42517e-014
lhumerus 70.2758 -0.0487186 92.4759
lradius 9.71683
lwrist -61.7703
lhand -15.2273 3.27255
lfingers 7.12502
lthumb 10.9455 32.9672
rfemur -19.9326 -55.9941 -51.8874
rtibia 131.25
rfoot -8.10615 58.5458
rtoes 3.4631
lfemur -55.4282 26.184 -1.56659
ltibia 128.251
lfoot -20.0906 -39.2318
ltoes 5.25781
64
root -2.79358 9.46678 -2.92689 308.614 -83.205 -334.31
lowerback 48.8397 -3.28414 0.568374
upperback 4.04225 -5.40637 -2.8923
thorax -16.4064 -2.74833 -0.716848
lowerneck 7.35626 1.89592 -1.44032
upperneck -2.76454 2.33182 -1.03347
head -2.13523 1.20423 -0.175234
rclavicle -8.44835e-016 -1.82882e-014
rhumerus 66.0756 -0.390413 -99.1919
rradius 12.4676
rwrist 66.7083
rhand -17.7108 14.369
rfingers 7.12502
rthumb 8.54939 -15.4379
lclavicle -8.44835e-016 -1.82882e-014
lhumerus 70.2257 -0.0176342 92.445
lradius 9.87929
lwrist -61.7077
lhand -15.5951 3.13898
lfingers 7.12502
lthumb 10.5908 32.8521
rfemur -15.673 -57.5528 -58.7571
rtibia 132.81
rfoot -7.64658 61.0362
rtoes 3.91878
lfemur -56.1449 27.9725 -0.195052
ltibia 129.884
lfoot -19.2562 -40.604
ltoes 5.62628
65
root -2.7984 9.27441 -2.92724 309.092 -83.3034 -335.309
lowerback 49.4825 -3.33388 0.714238
upperback 4.09999 -5.41306 -2.8683
thorax -16.4526 -2.76625 -0.742989
lowerneck 7.37918 1.8825 -1.34671
upperneck -2.83261 2.31817 -1.11039
head -2.15975 1.19928 -0.215812
rclavicle 4.58199e-014 2.127e-014
rhumerus 66.1876 -0.0478156 -98.1495
rradius 12.4084
rwrist 65.5038
rhand -17.8743 14.2879
rfingers 7.12502
rthumb 8.39169 -15.5254
lclavicle 4.58199e-014 2.127e-014
lhumerus 70.1887 0.0092402 92.4419
lradius 10.0051
lwrist -61.6382
lhand -15.9776 3.02814
lfingers 7.12502
lthumb 10.2217 32.7598
rfemur -10.7645 -58.7652 -66.3733
rtibia 134.332
rfoot -7.42668 63.6055
rtoes 4.19034
lfemur -56.7761 29.9455 1.33361
ltibia 131.51
lfoot -18.4777 -42.0691
ltoes 5.75939
66
root -2.80421 9.08152 -2.92666 309.278 -83.3545 -336.021
lowerback 50.1164 -3.38374 0.81649
upperback 4.15557 -5.44494 -2.85866
thorax -16.4949 -2.79269 -0.752216
lowerneck 7.38337 1.87016 -1.26861
upperneck -2.8651 2.30593 -1.17084
head -2.16953 1.19434 -0.248108
rclavicle -9.44227e-016 -6.95746e-015
rhumerus 66.2294 0.363442 -96.9403
rradius 12.4432
rwrist 64.1423
rhand -18.035 14.161
rfingers 7.12502
rthumb 8.2366 -15.6584
lclavicle -9.44227e-016 -6.95746e-015
lhumerus 70.2197 0.00807625 92.3837
lradius 9.94729
lwrist -61.5406
lhand -16.4639 2.91182
lfingers 7.12502
lthumb 9.75262 32.666
rfemur -5.40954 -59.5666 -74.6497
rtibia 135.859
rfoot -7.67069 66.1656
rtoes 4.55488
lfemur -57.32 32.027 2.90095
ltibia 133.099
lfoot -17.6538 -43.5844
ltoes 5.97277
67
root -2.81104 8.88861 -2.92672 309.654 -83.4226 -336.926
lowerback 50.705 -3.43883 0.943434
upperback 4.23785 -5.4714 -2.85919
thorax -16.4952 -2.82005 -0.788676
lowerneck 7.39419 1.86297 -1.17318
upperneck -2.929 2.30309 -1.2095
head -2.19102 1.19361 -0.277229
rclavicle -2.71838e-014 2.78299e-015
rhumerus 66.2591 0.692145 -95.8916
rradius 12.5063
rwrist 62.9305
rhand -18.2739 14.083
rfingers 7.12502
rthumb 8.00596 -15.7454
lclavicle -2.71838e-014 2.78299e-015
lhumerus 70.2725 0.0112233 92.2921
lradius 9.87025
lwrist -61.4405
lhand -16.8364 2.82508
lfingers 7.12502
lthumb 9.39323 32.5958
rfemur 0.218622 -59.8947 -83.2536
rtibia 137.355
rfoot -7.98822 68.7323
rtoes 4.9535
lfemur -57.8051 34.3003 4.69186
ltibia 134.682
lfoot -16.7485 -45.2525
ltoes 6.23041
68
root -2.81799 8.69535 -2.92624 310.017 -83.4634 -337.823
lowerback 51.2772 -3.48869 1.05256
upperback 4.32296 -5.49699 -2.84527
thorax -16.4823 -2.8464 -0.801493
lowerneck 7.40582 1.85144 -1.10831
upperneck -2.9869 2.2914 -1.24886
head -2.2111 1.18875 -0.300964
rclavicle 3.55825e-014 1.53064e-014
rhumerus 66.2604 1.01541 -94.8573
rradius 12.6062
rwrist 61.7988
rhand -18.52 14.0257
rfingers 7.12502
rthumb 7.76847 -15.8116
lclavicle 3.55825e-014 1.53064e-014
lhumerus 70.2785 0.0192406 92.2318
lradius 9.87075
lwrist -61.3728
lhand -17.0351 2.73456
lfingers 7.12502
lthumb 9.20146 32.5138
rfemur 5.69695 -59.7217 -91.8169
rtibia 138.824
rfoot -8.36938 71.2407
rtoes 5.36347
lfemur -58.2088 36.6714 6.60785
ltibia 136.238
lfoot -15.8506 -47.0044
ltoes 6.48357
69
root -2.82612 8.50433 -2.92586 310.358 -83.5113 -338.686
lowerback 51.8196 -3.5446 1.15286
upperback 4.40455 -5.53449 -2.8377
thorax -16.4661 -2.87723 -0.811738
lowerneck 7.45553 1.85555 -1.05827
upperneck -3.05911 2.29879 -1.27773
head -2.24325 1.19344 -0.320254
rclavicle -6.4605e-016 -5.1684e-015
rhumerus 66.1917 1.28408 -94.0682
rradius 12.7592
rwrist 60.9012
rhand -18.7799 13.9788
rfingers 7.12502
rthumb 7.51761 -15.8676
lclavicle -6.4605e-016 -5.1684e-015
lhumerus 70.2271 0.0468396 92.1522
lradius 9.95852
lwrist -61.272
lhand -17.0766 2.67366
lfingers 7.12502
lthumb 9.16144 32.4547
rfemur 10.589 -59.1339 -99.8557
rtibia 140.257
rfoot -8.34945 73.6528
rtoes 5.91162
lfemur -58.5027 39.2202 8.7449
ltibia 137.773
lfoot -14.8815 -48.9091
ltoes 6.82712
70
root -2.83406 8.31315 -2.92515 310.649 -83.5665 -339.507
lowerback 52.3658 -3.5888 1.253
upperback 4.49386 -5.5578 -2.82846
thorax -16.4364 -2.90307 -0.827359
lowerneck 7.45951 1.85502 -1.00087
upperneck -3.13471 2.30262 -1.28948
head -2.26826 1.19573 -0.334723
rclavicle 3.4191e-014 2.78299e-014
rhumerus 66.147 1.57475 -93.1051
rradius 12.9215
rwrist 59.8036
rhand -18.9722 13.9674
rfingers 7.12502
rthumb 7.332 -15.8855
lclavicle 3.4191e-014 2.78299e-014
lhumerus 70.1646 0.0688136 92.0764
lradius 10.0935
lwrist -61.1396
lhand -16.9157 2.56588
lfingers 7.12502
lthumb 9.31672 32.34
rfemur 14.9599 -58.1715 -107.463
rtibia 141.686
rfoot -9.4705 75.9716
rtoes 6.33934
lfemur -58.6498 41.8561 11.0891
ltibia 139.267
lfoot -13.9048 -50.8736
ltoes 7.11541
71
root -2.84247 8.12223 -2.92365 310.966 -83.6057 -340.332
lowerback 52.8911 -3.64476 1.3628
upperback 4.56281 -5.58804 -2.82778
thorax -16.427 -2.9308 -0.853395
lowerneck 7.46772 1.85177 -0.935646
upperneck -3.16412 2.30375 -1.30262
head -2.2786 1.19617 -0.350497
rclavicle -6.75868e-015 -1.31198e-014
rhumerus 66.0713 1.88971 -92.0706
rradius 13.0666
rwrist 58.5454
rhand -19.1641 13.9297
rfingers 7.12502
rthumb 7.14679 -15.9297
lclavicle -6.75868e-015 -1.31198e-014
lhumerus 70.0357 0.0710949 92.0024
lradius 10.2643
lwrist -61.0739
lhand -16.6967 2.51908
lfingers 7.12502
lthumb 9.52796 32.2837
rfemur 18.8323 -56.9026 -114.653
rtibia 143.108
rfoot -12.4226 78.1436
rtoes 6.56784
lfemur -58.7032 44.5113 13.6035
ltibia 140.735
lfoot -12.5869 -52.9128
ltoes 7.58352
72
root -2.85091 7.93406 -2.92185 311.424 -83.6598 -341.331
lowerback 53.4328 -3.70625 1.48723
upperback 4.6507 -5.61701 -2.82091
thorax -16.3928 -2.96051 -0.879967
lowerneck 7.42236 1.85354 -0.90189
upperneck -3.17917 2.31165 -1.27759
head -2.27511 1.19904 -0.348241
rclavicle 3.3694e-014 3.97569e-016
rhumerus 66.0459 2.21944 -90.987
rradius 13.2277
rwrist 57.176
rhand -19.2589 13.9168
rfingers 7.12502
rthumb 7.05526 -15.9456
lclavicle 3.3694e-014 3.97569e-016
lhumerus 69.9497 0.0438332 91.8317
lradius 10.4229
lwrist -60.8393
lhand -16.4148 2.46928
lfingers 7.12502
lthumb 9.80002 32.2212
rfemur 21.7774 -55.4022 -120.893
rtibia 144.493
rfoot -16.8616 80.1208
rtoes 6.85837
lfemur -58.5406 47.1463 16.3949
ltibia 142.152
lfoot -11.1241 -55.0168
ltoes 8.06317
73
root -2.8598 7.74984 -2.92021 311.667 -83.6937 -342.092
lowerback 53.9463 -3.76122 1.58248
upperback 4.73046 -5.65513 -2.8258
thorax -16.362 -2.99199 -0.902068
lowerneck 7.37444 1.8563 -0.843999
upperneck -3.18862 2.3224 -1.26871
head -2.26878 1.20345 -0.355281
rclavicle -3.29486e-014 7.95139e-016
rhumerus 66.0697 2.55449 -89.9127
rradius 13.3112
rwrist 55.7204
rhand -19.3401 13.906
rfingers 7.12502
rthumb 6.9769 -15.959
lclavicle -3.29486e-014 7.95139e-016
lhumerus 69.8878 0.0445564 91.7178
lradius 10.5123
lwrist -60.741
lhand -16.2224 2.41282
lfingers 7.12502
lthumb 9.98564 32.156
rfemur 23.7139 -53.9078 -126.138
rtibia 145.833
rfoot -21.5072 81.8918
rtoes 7.08174
lfemur -58.2189 49.7533 19.3073
ltibia 143.525
lfoot -9.79441 -57.0353
ltoes 8.42699
